# xmcd
#
# Track frame offsets: 
#        188
#        15913
#        45005
#        70505
#        82293
#        98963
#        138660
#        147380
#        162863
#        174658
#        191213
#        206370
#        221588
#        233258
#        245188
#
# Disc length: 3749 seconds
#
# Revision: 2
# Processed by: cddbd v1.5.2PL0 Copyright (c) Steve Scherf et al.
# Submitted via: ExactAudioCopy v0.95b4
#
DISCID=cd0ea30f
DTITLE=Various Artist - Berühmte Orgelwerke 2
DYEAR=1999
DGENRE=
TTITLE0=Johann Sebastian Bach /Choralvorspiel BWV 720 ADD
TTITLE1=Georg Friedrich Händel - Orgelkonzert d-Moll HWV 309 DDD, Adag
TTITLE1=io
TTITLE2=Georg Friedrich Händel - Orgelkonzert d-Moll HWV 309 DDD, Alle
TTITLE2=gro
TTITLE3=Georg Friedrich Händel - Orgelkonzert d-Moll HWV 309 DDD, Orga
TTITLE3=no ad libitum
TTITLE4=Georg Friedrich Händel - Orgelkonzert d-Moll HWV 309 DDD, Alle
TTITLE4=gro
TTITLE5=Johann Pachelbel - Was Gott tut, das ist wohlgetan
TTITLE6=Johann Pachelbel - Vom Himmel hoch
TTITLE7=Johann Pachelbel - Wie schoen leuchtet der Morgenstern
TTITLE8=Georg Friedrich Händel - Orgelkonzert F-Dur, HWV 295 ADD, Larg
TTITLE8=hetto
TTITLE9=Georg Friedrich Händel - Orgelkonzert F-Dur, HWV 295 ADD, Alle
TTITLE9=gro
TTITLE10=Georg Friedrich Händel - Orgelkonzert F-Dur, HWV 295 ADD, Lar
TTITLE10=ghetto
TTITLE11=Georg Friedrich Händel - Orgelkonzert F-Dur, HWV 295 ADD, All
TTITLE11=egro
TTITLE12=Johann Pachelbel - Fuga C-Dur
TTITLE13=Johann Pachelbel - Toccata C-Dur
TTITLE14=Johann Pachelbel - Ciacona f-Moll
EXTD=
EXTT0=
EXTT1=
EXTT2=
EXTT3=
EXTT4=
EXTT5=
EXTT6=
EXTT7=
EXTT8=
EXTT9=
EXTT10=
EXTT11=
EXTT12=
EXTT13=
EXTT14=
PLAYORDER=
